<svg width="80" height="80" viewBox="0 0 80 80" fill="none" xmlns="http://www.w3.org/2000/svg">
<rect width="80" height="80" rx="10" fill="#B8B5B5"/>
<path d="M65.9028 38.1878C65.6796 37.4624 65.1216 36.8485 64.3961 36.5695C63.6706 36.2905 62.8894 36.2905 62.1639 36.6811L51.5052 42.3732C51.6168 42.987 51.561 43.6009 51.4494 44.2147C50.8914 46.6701 48.6592 48.3443 46.148 48.0653L36.4938 47.1166C35.6009 47.005 34.9313 46.2237 35.0429 45.3308C35.1545 44.438 35.9357 43.7683 36.8286 43.8799L46.4828 44.8286C47.3199 44.9402 48.157 44.3264 48.3244 43.4893C48.4918 42.6522 48.0453 41.8709 47.2641 41.5361L37.2192 37.574C35.3219 36.8485 33.1455 36.9043 31.2482 37.7414L25.7793 40.2526V55.8779L40.9582 57.8311C44.0832 58.2217 47.2083 57.273 49.5521 55.1525L65.1774 40.9223C65.9028 40.2526 66.1819 39.1923 65.9028 38.1878Z" fill="#F3F2F2"/>
<path d="M20.143 37.7414H15.3996C14.0603 37.7414 13 38.8017 13 40.141V55.9337C13 57.273 14.0603 58.3333 15.3996 58.3333H20.0872C21.4265 58.3333 22.4868 57.273 22.4868 55.9337V40.141C22.5426 38.8017 21.4265 37.7414 20.143 37.7414Z" fill="#F3F2F2"/>
<path d="M28.4023 32.0493H43.7485C44.9204 35.007 47.8223 37.0717 51.1706 37.0717C55.6349 37.0717 59.2064 33.4444 59.2064 29.0359C59.2064 24.5715 55.5791 21 51.1706 21C47.8223 21 44.9204 23.0648 43.7485 26.0224H40.9025C40.7909 26.0224 40.6235 26.0782 40.5677 26.1898L39.0609 27.6966C38.8377 27.9198 38.5587 27.9198 38.3355 27.6966L36.8288 26.1898C36.7172 26.0782 36.6055 26.0224 36.4939 26.0224H35.043C34.9314 26.0224 34.764 26.0782 34.7082 26.1898L33.2015 27.6966C32.9782 27.9198 32.6992 27.9198 32.476 27.6966L30.9693 26.1898C30.8577 26.0782 30.7461 26.0224 30.6344 26.0224H28.5139C28.4023 26.0224 28.2348 26.0782 28.179 26.134L25.5004 28.6452C25.2772 28.8685 25.2772 29.2033 25.5004 29.3707L28.179 31.8819C28.179 31.9935 28.2907 32.0493 28.4023 32.0493ZM53.8492 26.7479C55.0769 26.7479 56.1372 27.7524 56.1372 28.9801C56.1372 30.2078 55.1327 31.2681 53.8492 31.2681C52.6215 31.2681 51.5612 30.2636 51.5612 28.9801C51.617 27.7524 52.6215 26.7479 53.8492 26.7479Z" fill="#F3F2F2"/>
</svg>
