<svg width="270" height="112" viewBox="0 0 270 112" fill="none" xmlns="http://www.w3.org/2000/svg">
<rect width="270" height="112" fill="white"/>
<rect x="16.2002" y="17.1" width="72" height="72" rx="9" fill="#0D63F3"/>
<path d="M45.1769 69.9838C46.9166 69.9838 48.3269 68.5735 48.3269 66.8338C48.3269 65.0941 46.9166 63.6838 45.1769 63.6838C43.4372 63.6838 42.0269 65.0941 42.0269 66.8338C42.0269 68.5735 43.4372 69.9838 45.1769 69.9838Z" fill="white"/>
<path d="M61.7955 69.9838C63.5352 69.9838 64.9455 68.5735 64.9455 66.8338C64.9455 65.0941 63.5352 63.6838 61.7955 63.6838C60.0558 63.6838 58.6455 65.0941 58.6455 66.8338C58.6455 68.5735 60.0558 69.9838 61.7955 69.9838Z" fill="white"/>
<path d="M33.8807 37.1831H53.716H72.5293C73.7128 37.1831 74.5743 38.3057 74.268 39.4489L72.5299 45.9369L68.5437 61.0955C68.4517 61.4681 68.2349 61.798 67.9294 62.0302C67.6239 62.2624 67.248 62.3829 66.8644 62.3717H48.0361H39.4176C38.5005 62.3717 37.691 61.7723 37.4236 60.8949L30.1696 37.0957L28.1911 36.1486C27.7635 36.0172 27.4057 35.7214 27.1963 35.3261C26.9869 34.9309 26.943 34.4687 27.0744 34.0411C27.2058 33.6136 27.5016 33.2557 27.8968 33.0463C28.0925 32.9426 28.3067 32.8785 28.5272 32.8576C28.7477 32.8367 28.9701 32.8594 29.1818 32.9244L31.5896 33.8929C32.0959 34.0965 32.5109 34.4772 32.7574 34.9641L33.8807 37.1831Z" fill="white"/>
<path d="M46.7384 42.9557L46.7132 55.0861C46.6945 55.3369 46.7456 55.588 46.8609 55.8116C46.9761 56.0352 47.151 56.2224 47.3662 56.3527C47.5813 56.4829 47.8284 56.5511 48.0799 56.5495C48.3314 56.548 48.5776 56.4769 48.7911 56.344L59.3434 50.2517C59.5652 50.1331 59.75 49.9555 59.877 49.7385C60.0041 49.5214 60.0686 49.2734 60.0634 49.0219C60.0582 48.7705 59.9834 48.5254 59.8475 48.3138C59.7115 48.1022 59.5196 47.9324 59.293 47.8232L48.7751 41.7798C48.5685 41.662 48.3346 41.6003 48.0968 41.601C47.859 41.6016 47.6254 41.6645 47.4194 41.7835C47.2135 41.9024 47.0422 42.0732 46.9227 42.2788C46.8033 42.4845 46.7397 42.7178 46.7384 42.9557Z" fill="#0D63F3"/>
<path d="M99.513 49.0905H103.725V63.6165H99.513V49.0905ZM101.619 47.0655C100.845 47.0655 100.215 46.8405 99.729 46.3905C99.243 45.9405 99 45.3825 99 44.7165C99 44.0505 99.243 43.4925 99.729 43.0425C100.215 42.5925 100.845 42.3675 101.619 42.3675C102.393 42.3675 103.023 42.5835 103.509 43.0155C103.995 43.4475 104.238 43.9875 104.238 44.6355C104.238 45.3375 103.995 45.9225 103.509 46.3905C103.023 46.8405 102.393 47.0655 101.619 47.0655Z" fill="#0D63F3"/>
<path d="M116.463 48.8745C118.263 48.8745 119.712 49.4145 120.81 50.4945C121.926 51.5745 122.484 53.1765 122.484 55.3005V63.6165H118.272V55.9485C118.272 54.7965 118.02 53.9415 117.516 53.3835C117.012 52.8075 116.283 52.5195 115.329 52.5195C114.267 52.5195 113.421 52.8525 112.791 53.5185C112.161 54.1665 111.846 55.1385 111.846 56.4345V63.6165H107.634V49.0905H111.657V50.7915C112.215 50.1795 112.908 49.7115 113.736 49.3875C114.564 49.0455 115.473 48.8745 116.463 48.8745Z" fill="#0D63F3"/>
<path d="M149.366 49.0905L144.101 63.6165H140.051L136.784 54.5985L133.409 63.6165H129.359L124.121 49.0905H128.09L131.519 58.9185L135.083 49.0905H138.647L142.103 58.9185L145.64 49.0905H149.366Z" fill="#0D63F3"/>
<path d="M165.158 56.4075C165.158 56.4615 165.131 56.8395 165.077 57.5415H154.088C154.286 58.4415 154.754 59.1525 155.492 59.6745C156.23 60.1965 157.148 60.4575 158.246 60.4575C159.002 60.4575 159.668 60.3495 160.244 60.1335C160.838 59.8995 161.387 59.5395 161.891 59.0535L164.132 61.4835C162.764 63.0495 160.766 63.8325 158.138 63.8325C156.5 63.8325 155.051 63.5175 153.791 62.8875C152.531 62.2395 151.559 61.3485 150.875 60.2145C150.191 59.0805 149.849 57.7935 149.849 56.3535C149.849 54.9315 150.182 53.6535 150.848 52.5195C151.532 51.3675 152.459 50.4765 153.629 49.8465C154.817 49.1985 156.14 48.8745 157.598 48.8745C159.02 48.8745 160.307 49.1805 161.459 49.7925C162.611 50.4045 163.511 51.2865 164.159 52.4385C164.825 53.5725 165.158 54.8955 165.158 56.4075ZM157.625 52.0605C156.671 52.0605 155.87 52.3305 155.222 52.8705C154.574 53.4105 154.178 54.1485 154.034 55.0845H161.189C161.045 54.1665 160.649 53.4375 160.001 52.8975C159.353 52.3395 158.561 52.0605 157.625 52.0605Z" fill="#0D63F3"/>
<path d="M176.548 48.8745C177.898 48.8745 179.122 49.1895 180.22 49.8195C181.336 50.4315 182.209 51.3045 182.839 52.4385C183.469 53.5545 183.784 54.8595 183.784 56.3535C183.784 57.8475 183.469 59.1615 182.839 60.2955C182.209 61.4115 181.336 62.2845 180.22 62.9145C179.122 63.5265 177.898 63.8325 176.548 63.8325C174.55 63.8325 173.029 63.2025 171.985 61.9425V63.6165H167.962V43.5825H172.174V50.6295C173.236 49.4595 174.694 48.8745 176.548 48.8745ZM175.819 60.3765C176.899 60.3765 177.781 60.0165 178.465 59.2965C179.167 58.5585 179.518 57.5775 179.518 56.3535C179.518 55.1295 179.167 54.1575 178.465 53.4375C177.781 52.6995 176.899 52.3305 175.819 52.3305C174.739 52.3305 173.848 52.6995 173.146 53.4375C172.462 54.1575 172.12 55.1295 172.12 56.3535C172.12 57.5775 172.462 58.5585 173.146 59.2965C173.848 60.0165 174.739 60.3765 175.819 60.3765Z" fill="#0D63F3"/>
<path d="M191.491 63.8325C190.285 63.8325 189.106 63.6885 187.954 63.4005C186.802 63.0945 185.884 62.7165 185.2 62.2665L186.604 59.2425C187.252 59.6565 188.035 59.9985 188.953 60.2685C189.871 60.5205 190.771 60.6465 191.653 60.6465C193.435 60.6465 194.326 60.2055 194.326 59.3235C194.326 58.9095 194.083 58.6125 193.597 58.4325C193.111 58.2525 192.364 58.0995 191.356 57.9735C190.168 57.7935 189.187 57.5865 188.413 57.3525C187.639 57.1185 186.964 56.7045 186.388 56.1105C185.83 55.5165 185.551 54.6705 185.551 53.5725C185.551 52.6545 185.812 51.8445 186.334 51.1425C186.874 50.4225 187.648 49.8645 188.656 49.4685C189.682 49.0725 190.888 48.8745 192.274 48.8745C193.3 48.8745 194.317 48.9915 195.325 49.2255C196.351 49.4415 197.197 49.7475 197.863 50.1435L196.459 53.1405C195.181 52.4205 193.786 52.0605 192.274 52.0605C191.374 52.0605 190.699 52.1865 190.249 52.4385C189.799 52.6905 189.574 53.0145 189.574 53.4105C189.574 53.8605 189.817 54.1755 190.303 54.3555C190.789 54.5355 191.563 54.7065 192.625 54.8685C193.813 55.0665 194.785 55.2825 195.541 55.5165C196.297 55.7325 196.954 56.1375 197.512 56.7315C198.07 57.3255 198.349 58.1535 198.349 59.2155C198.349 60.1155 198.079 60.9165 197.539 61.6185C196.999 62.3205 196.207 62.8695 195.163 63.2655C194.137 63.6435 192.913 63.8325 191.491 63.8325Z" fill="#0D63F3"/>
<path d="M206.807 48.8745C209.057 48.8745 210.785 49.4145 211.991 50.4945C213.197 51.5565 213.8 53.1675 213.8 55.3275V63.6165H209.858V61.8075C209.066 63.1575 207.59 63.8325 205.43 63.8325C204.314 63.8325 203.342 63.6435 202.514 63.2655C201.704 62.8875 201.083 62.3655 200.651 61.6995C200.219 61.0335 200.003 60.2775 200.003 59.4315C200.003 58.0815 200.507 57.0195 201.515 56.2455C202.541 55.4715 204.116 55.0845 206.24 55.0845H209.588C209.588 54.1665 209.309 53.4645 208.751 52.9785C208.193 52.4745 207.356 52.2225 206.24 52.2225C205.466 52.2225 204.701 52.3485 203.945 52.6005C203.207 52.8345 202.577 53.1585 202.055 53.5725L200.543 50.6295C201.335 50.0715 202.28 49.6395 203.378 49.3335C204.494 49.0275 205.637 48.8745 206.807 48.8745ZM206.483 60.9975C207.203 60.9975 207.842 60.8355 208.4 60.5115C208.958 60.1695 209.354 59.6745 209.588 59.0265V57.5415H206.699C204.971 57.5415 204.107 58.1085 204.107 59.2425C204.107 59.7825 204.314 60.2145 204.728 60.5385C205.16 60.8445 205.745 60.9975 206.483 60.9975Z" fill="#0D63F3"/>
<path d="M217.612 43.5825H221.824V63.6165H217.612V43.5825Z" fill="#0D63F3"/>
<path d="M239.962 56.4075C239.962 56.4615 239.935 56.8395 239.881 57.5415H228.892C229.09 58.4415 229.558 59.1525 230.296 59.6745C231.034 60.1965 231.952 60.4575 233.05 60.4575C233.806 60.4575 234.472 60.3495 235.048 60.1335C235.642 59.8995 236.191 59.5395 236.695 59.0535L238.936 61.4835C237.568 63.0495 235.57 63.8325 232.942 63.8325C231.304 63.8325 229.855 63.5175 228.595 62.8875C227.335 62.2395 226.363 61.3485 225.679 60.2145C224.995 59.0805 224.653 57.7935 224.653 56.3535C224.653 54.9315 224.986 53.6535 225.652 52.5195C226.336 51.3675 227.263 50.4765 228.433 49.8465C229.621 49.1985 230.944 48.8745 232.402 48.8745C233.824 48.8745 235.111 49.1805 236.263 49.7925C237.415 50.4045 238.315 51.2865 238.963 52.4385C239.629 53.5725 239.962 54.8955 239.962 56.4075ZM232.429 52.0605C231.475 52.0605 230.674 52.3305 230.026 52.8705C229.378 53.4105 228.982 54.1485 228.838 55.0845H235.993C235.849 54.1665 235.453 53.4375 234.805 52.8975C234.157 52.3395 233.365 52.0605 232.429 52.0605Z" fill="#0D63F3"/>
</svg>
