<svg width="80" height="80" viewBox="0 0 80 80" fill="none" xmlns="http://www.w3.org/2000/svg">
<rect width="80" height="80" rx="10" fill="#AEC7E0"/>
<path d="M21.8305 52.609C21.4017 52.609 20.9905 52.7794 20.6874 53.0825C20.3842 53.3857 20.2139 53.7969 20.2139 54.2256V61.0315C20.2139 61.4602 20.3842 61.8714 20.6874 62.1746C20.9905 62.4778 21.4017 62.6481 21.8305 62.6481C22.2592 62.6481 22.6704 62.4778 22.9736 62.1746C23.2767 61.8714 23.4471 61.4602 23.4471 61.0315V54.2256C23.4471 53.7969 23.2767 53.3857 22.9736 53.0825C22.6704 52.7794 22.2592 52.609 21.8305 52.609Z" fill="#E8F0F8"/>
<path d="M29.2968 47.1625C28.868 47.1625 28.4568 47.3329 28.1537 47.636C27.8505 47.9392 27.6802 48.3504 27.6802 48.7791V61.0315C27.6802 61.4602 27.8505 61.8714 28.1537 62.1746C28.4568 62.4778 28.868 62.6481 29.2968 62.6481C29.7255 62.6481 30.1367 62.4778 30.4399 62.1746C30.743 61.8714 30.9134 61.4602 30.9134 61.0315V48.7791C30.9134 48.3504 30.743 47.9392 30.4399 47.636C30.1367 47.3329 29.7255 47.1625 29.2968 47.1625Z" fill="#E8F0F8"/>
<path d="M36.7631 41.7175C36.3343 41.7175 35.9231 41.8878 35.62 42.191C35.3168 42.4942 35.1465 42.9054 35.1465 43.3341V61.0315C35.1465 61.4602 35.3168 61.8714 35.62 62.1746C35.9231 62.4778 36.3343 62.6481 36.7631 62.6481C37.1918 62.6481 37.603 62.4778 37.9062 62.1746C38.2094 61.8714 38.3797 61.4602 38.3797 61.0315V43.3341C38.3797 42.9054 38.2094 42.4942 37.9062 42.191C37.603 41.8878 37.1918 41.7175 36.7631 41.7175Z" fill="#E8F0F8"/>
<path d="M51.6957 38.9952C51.2669 38.9952 50.8558 39.1655 50.5526 39.4687C50.2494 39.7719 50.0791 40.1831 50.0791 40.6118V61.0315C50.0791 61.4603 50.2494 61.8714 50.5526 62.1746C50.8558 62.4778 51.2669 62.6481 51.6957 62.6481C52.1244 62.6481 52.5356 62.4778 52.8388 62.1746C53.142 61.8714 53.3123 61.4603 53.3123 61.0315V40.6118C53.3123 40.1831 53.142 39.7719 52.8388 39.4687C52.5356 39.1655 52.1244 38.9952 51.6957 38.9952Z" fill="#E8F0F8"/>
<path d="M44.2294 44.44C43.8006 44.44 43.3895 44.6103 43.0863 44.9135C42.7831 45.2167 42.6128 45.6279 42.6128 46.0566V61.0315C42.6128 61.4602 42.7831 61.8714 43.0863 62.1746C43.3895 62.4777 43.8006 62.648 44.2294 62.648C44.6581 62.648 45.0693 62.4777 45.3725 62.1746C45.6757 61.8714 45.846 61.4602 45.846 61.0315V46.0566C45.846 45.6279 45.6757 45.2167 45.3725 44.9135C45.0693 44.6103 44.6581 44.44 44.2294 44.44Z" fill="#E8F0F8"/>
<path d="M59.162 33.5493C58.7333 33.5493 58.3221 33.7197 58.0189 34.0228C57.7157 34.326 57.5454 34.7372 57.5454 35.1659V61.0315C57.5454 61.4602 57.7157 61.8714 58.0189 62.1746C58.3221 62.4778 58.7333 62.6481 59.162 62.6481C59.5908 62.6481 60.0019 62.4778 60.3051 62.1746C60.6083 61.8714 60.7786 61.4602 60.7786 61.0315V35.1659C60.7786 34.7372 60.6083 34.326 60.3051 34.0228C60.0019 33.7197 59.5908 33.5493 59.162 33.5493Z" fill="#E8F0F8"/>
<path d="M63.0077 19.5034C62.9792 19.0959 62.7973 18.7144 62.4989 18.4354C62.2004 18.1565 61.8074 18.001 61.3989 18H53.312C52.9926 18.0007 52.6806 18.0959 52.4152 18.2736C52.1498 18.4514 51.943 18.7037 51.8208 18.9988C51.6985 19.2939 51.6664 19.6186 51.7284 19.9319C51.7904 20.2452 51.9437 20.5332 52.1691 20.7595L55.0675 23.6581L40.9101 34.8155L35.4858 31.1033C35.1822 30.9522 34.8388 30.9002 34.504 30.9546C34.1692 31.009 33.86 31.167 33.6198 31.4064L17.4538 46.5724C17.1593 46.8773 16.9964 47.2856 17.0001 47.7095C17.0037 48.1334 17.1738 48.5388 17.4735 48.8386C17.7732 49.1383 18.1787 49.3083 18.6025 49.312C19.0264 49.3157 19.4348 49.1527 19.7397 48.8583L35.0812 34.5168L40.5055 38.2289C40.8089 38.3809 41.1525 38.4334 41.4875 38.3789C41.8225 38.3245 42.1318 38.166 42.3715 37.9258L57.3535 25.9441L60.2521 28.8425C60.4785 29.0677 60.7665 29.2208 61.0797 29.2827C61.393 29.3445 61.7175 29.3123 62.0125 29.1902C62.3075 29.068 62.5598 28.8613 62.7376 28.596C62.9154 28.3308 63.0107 28.0189 63.0116 27.6996C63.0116 27.6175 63.0139 19.5843 63.0077 19.5034Z" fill="#E8F0F8"/>
</svg>
