<svg width="80" height="80" viewBox="0 0 80 80" fill="none" xmlns="http://www.w3.org/2000/svg">
<rect width="80" height="80" rx="10" fill="#EFCCA5"/>
<path d="M70.2925 50.0023C67.8167 47.6444 62.7472 43.5181 56.8525 43.5181C50.9577 43.5181 45.8882 47.5854 43.4124 50.0023C42.4693 50.8865 42.4693 52.4191 43.4124 53.3033C45.8882 55.6613 50.9577 59.7876 56.8525 59.7876C62.7472 59.7876 67.8167 55.7202 70.2925 53.3033C71.2357 52.3602 71.2357 50.8865 70.2925 50.0023ZM56.8525 57.1939C53.7872 57.1939 51.3114 54.7181 51.3114 51.6528C51.3114 48.5875 53.7872 46.1117 56.8525 46.1117C59.9178 46.1117 62.3936 48.5875 62.3936 51.6528C62.3936 54.7181 59.9178 57.1939 56.8525 57.1939Z" fill="#FFF4E8"/>
<path d="M56.8526 48.2338C56.4989 48.2338 56.2041 48.2928 55.8504 48.4107C56.0273 48.7054 56.2041 49.0001 56.2041 49.3538C56.2041 50.297 55.4378 51.0043 54.5536 51.0043C54.1999 51.0043 53.8462 50.8865 53.6104 50.6507C53.4925 50.9454 53.4336 51.2991 53.4336 51.6528C53.4336 53.5391 54.9662 55.0717 56.8526 55.0717C58.7389 55.0717 60.2715 53.5391 60.2715 51.6528C60.2715 49.7664 58.7389 48.2338 56.8526 48.2338Z" fill="#FFF4E8"/>
<path d="M56.3812 26.659C56.3812 23.5347 53.8464 21 50.7222 21H20.659C17.5347 21 15 23.5347 15 26.659V45.5222C15 48.6464 17.5347 51.1812 20.659 51.1812H39.4043C39.5222 49.8254 40.1117 48.4696 41.1138 47.5264C43.8843 44.8148 49.5433 40.3348 56.3812 40.099V26.659ZM41.8211 37.5643L32.6253 42.9874C31.5053 43.6359 30.0906 42.8106 30.0906 41.5138V30.6674C30.0906 29.3706 31.5053 28.5453 32.6253 29.1937L41.8211 34.6758C42.9411 35.3243 42.9411 36.9158 41.8211 37.5643Z" fill="#FFF4E8"/>
</svg>
